<svg xmlns="http://www.w3.org/2000/svg" xmlns:xlink="http://www.w3.org/1999/xlink" width="500" zoomAndPan="magnify" viewBox="0 0 375 374.999991" height="500" preserveAspectRatio="xMidYMid meet" version="1.2"><defs><clipPath id="3288f2ed06"><path d="M 250.035156 171.1875 L 287.976562 171.1875 L 287.976562 213.902344 L 250.035156 213.902344 Z M 250.035156 171.1875 "/></clipPath><clipPath id="d16d9b46d5"><path d="M 250.035156 171.1875 L 287.976562 171.1875 L 287.976562 213.902344 L 250.035156 213.902344 Z M 250.035156 171.1875 "/></clipPath><clipPath id="1d1208d394"><path d="M 223.90625 252.46875 L 224 252.46875 L 224 252.644531 L 223.90625 252.644531 Z M 223.90625 252.46875 "/></clipPath></defs><g id="e2b168fcb2"><rect x="0" width="375" y="0" height="374.999991" style="fill:#ffffff;fill-opacity:1;stroke:none;"/><rect x="0" width="375" y="0" height="374.999991" style="fill:#ffffff;fill-opacity:1;stroke:none;"/><path style=" stroke:none;fill-rule:nonzero;fill:#f1f2f6;fill-opacity:1;" d="M 149.121094 231.132812 C 149.121094 231.121094 149.121094 231.105469 149.117188 231.09375 C 149.117188 231.105469 149.121094 231.121094 149.121094 231.132812 "/><g clip-rule="nonzero" clip-path="url(#3288f2ed06)"><path style=" stroke:none;fill-rule:nonzero;fill:#f1f2f6;fill-opacity:1;" d="M 250.296875 208.652344 C 250.300781 208.660156 250.308594 208.664062 250.316406 208.671875 C 250.398438 208.773438 250.460938 208.867188 250.578125 208.976562 C 250.933594 209.453125 251.066406 209.941406 251.191406 210.414062 C 251.433594 211.328125 251.351562 212.210938 251.089844 213.046875 C 251.050781 213.191406 250.980469 213.332031 250.921875 213.472656 C 250.917969 213.480469 250.917969 213.488281 250.914062 213.492188 C 250.929688 213.488281 250.945312 213.480469 250.957031 213.472656 C 251.304688 213.335938 251.644531 213.191406 251.988281 213.050781 C 251.988281 213.050781 251.988281 213.046875 251.992188 213.046875 C 253.046875 212.609375 254.101562 212.15625 255.148438 211.695312 C 257.851562 210.507812 260.527344 209.246094 263.167969 207.902344 C 265.90625 206.492188 268.621094 205.015625 271.257812 203.378906 C 273.894531 201.746094 276.480469 199.992188 278.929688 198 C 280.152344 197.003906 281.347656 195.957031 282.476562 194.804688 C 283.605469 193.65625 284.679688 192.417969 285.621094 191.023438 C 286.089844 190.324219 286.523438 189.582031 286.894531 188.789062 C 287.261719 187.996094 287.570312 187.144531 287.765625 186.238281 C 287.957031 185.332031 288.03125 184.367188 287.933594 183.402344 C 287.910156 183.164062 287.871094 182.925781 287.824219 182.6875 L 287.789062 182.507812 L 287.742188 182.3125 L 287.65625 181.984375 C 287.519531 181.511719 287.347656 181.066406 287.136719 180.636719 C 286.71875 179.78125 286.167969 179.023438 285.558594 178.367188 C 284.945312 177.707031 284.277344 177.152344 283.585938 176.660156 C 282.195312 175.691406 280.722656 174.972656 279.230469 174.394531 C 276.25 173.238281 273.195312 172.578125 270.148438 172.105469 C 267.097656 171.636719 264.039062 171.398438 260.984375 171.269531 C 257.929688 171.15625 254.878906 171.164062 251.839844 171.289062 L 251.832031 171.730469 C 254.855469 171.996094 257.867188 172.300781 260.859375 172.71875 C 263.84375 173.121094 266.8125 173.648438 269.71875 174.328125 C 271.167969 174.671875 272.605469 175.058594 274.007812 175.511719 C 275.410156 175.964844 276.78125 176.476562 278.082031 177.089844 C 279.378906 177.699219 280.609375 178.40625 281.65625 179.246094 C 282.699219 180.082031 283.542969 181.050781 283.976562 182.097656 C 284.082031 182.355469 284.167969 182.628906 284.226562 182.886719 L 284.273438 183.109375 L 284.300781 183.296875 C 284.320312 183.433594 284.328125 183.566406 284.339844 183.707031 C 284.363281 184.253906 284.296875 184.820312 284.144531 185.386719 C 283.839844 186.535156 283.195312 187.683594 282.398438 188.769531 C 281.597656 189.859375 280.632812 190.886719 279.59375 191.859375 C 278.554688 192.832031 277.445312 193.753906 276.285156 194.632812 C 273.957031 196.386719 271.472656 197.988281 268.914062 199.480469 C 266.351562 200.96875 263.726562 202.378906 261.050781 203.699219 C 259.710938 204.359375 258.371094 205.019531 257.011719 205.648438 C 256.246094 206.011719 255.472656 206.359375 254.699219 206.710938 C 254.109375 206.976562 253.515625 207.242188 252.921875 207.507812 C 252.117188 207.863281 251.3125 208.21875 250.5 208.566406 C 250.496094 208.570312 250.488281 208.570312 250.480469 208.574219 C 250.417969 208.601562 250.359375 208.628906 250.296875 208.652344 "/></g><path style=" stroke:none;fill-rule:nonzero;fill:#f1f2f6;fill-opacity:1;" d="M 87.097656 224.921875 C 87.183594 225.878906 87.449219 226.824219 87.855469 227.683594 C 88.265625 228.546875 88.808594 229.3125 89.40625 229.984375 C 90.617188 231.328125 92.035156 232.3125 93.480469 233.117188 C 94.933594 233.917969 96.429688 234.539062 97.9375 235.066406 C 99.441406 235.597656 100.96875 236.011719 102.492188 236.375 C 105.546875 237.097656 108.621094 237.566406 111.699219 237.878906 C 113.234375 238.035156 114.773438 238.15625 116.308594 238.230469 C 117.847656 238.316406 119.386719 238.363281 120.921875 238.378906 C 123.316406 238.414062 125.710938 238.371094 128.097656 238.277344 C 129.640625 238.214844 131.1875 238.128906 132.730469 238.027344 C 134.90625 237.882812 137.074219 237.703125 139.242188 237.503906 C 142.867188 237.160156 146.480469 236.757812 150.085938 236.320312 C 151.550781 236.140625 153.011719 235.957031 154.472656 235.769531 C 155.445312 235.648438 156.414062 235.523438 157.382812 235.394531 C 163.410156 234.605469 169.425781 233.746094 175.433594 232.8125 C 179.441406 232.183594 183.484375 231.535156 187.492188 230.851562 C 188.667969 230.648438 189.753906 230.445312 191.046875 230.234375 L 191.046875 230.226562 L 191.105469 229.601562 L 189.875 228.222656 L 189.871094 228.222656 C 189.070312 228.339844 188.222656 228.585938 187.519531 228.773438 L 187.519531 228.761719 C 183.464844 229.714844 179.324219 230.589844 175.210938 231.347656 C 169.257812 232.449219 163.242188 233.347656 157.222656 233.984375 C 157.015625 234.007812 156.804688 234.027344 156.601562 234.046875 C 156.386719 234.070312 156.167969 234.09375 155.957031 234.113281 C 155.738281 234.136719 155.523438 234.160156 155.308594 234.179688 C 155.214844 234.1875 155.117188 234.195312 155.019531 234.203125 C 154.875 234.21875 154.769531 234.230469 154.625 234.246094 C 154.480469 234.253906 154.339844 234.269531 154.222656 234.285156 C 153.988281 234.292969 153.976562 234.304688 153.875 234.3125 C 153.621094 234.335938 153.339844 234.359375 153.085938 234.382812 C 153.082031 234.378906 153.070312 234.382812 153.0625 234.382812 C 152.699219 234.414062 152.328125 234.445312 151.953125 234.472656 C 151.589844 234.5 151.21875 234.5 150.847656 234.527344 C 150.480469 234.550781 150.109375 234.578125 149.738281 234.578125 L 149.730469 234.578125 C 146.191406 234.929688 142.648438 234.980469 139.105469 235.039062 C 136.613281 235.082031 134.121094 235.046875 131.632812 235.046875 L 131.628906 235.046875 C 130.070312 235.046875 128.511719 235.046875 126.957031 234.929688 C 126.957031 234.929688 126.957031 234.929688 126.953125 234.929688 L 126.9375 234.929688 C 124.96875 234.929688 123.007812 234.796875 121.050781 234.683594 C 120.300781 234.640625 119.554688 234.605469 118.808594 234.550781 C 118.0625 234.496094 117.316406 234.449219 116.570312 234.382812 C 115.085938 234.253906 113.597656 234.125 112.121094 233.953125 C 109.164062 233.613281 106.230469 233.183594 103.371094 232.554688 C 101.941406 232.238281 100.535156 231.859375 99.167969 231.417969 C 97.804688 230.976562 96.476562 230.453125 95.257812 229.820312 C 94.039062 229.183594 92.914062 228.433594 92.0625 227.546875 C 91.210938 226.652344 90.660156 225.652344 90.507812 224.542969 C 90.34375 223.441406 90.601562 222.21875 91.125 221.019531 C 91.652344 219.8125 92.441406 218.644531 93.332031 217.535156 C 94.226562 216.425781 95.242188 215.375 96.3125 214.375 C 97.378906 213.367188 98.515625 212.410156 99.683594 211.488281 C 102.019531 209.636719 104.5 207.929688 107.027344 206.292969 C 109.5625 204.660156 112.160156 203.105469 114.789062 201.578125 L 114.59375 201.183594 C 111.769531 202.316406 108.984375 203.566406 106.257812 204.953125 C 103.53125 206.335938 100.863281 207.859375 98.292969 209.578125 C 95.734375 211.308594 93.25 213.222656 91.074219 215.589844 C 89.992188 216.785156 88.988281 218.101562 88.214844 219.636719 C 87.828125 220.40625 87.5 221.234375 87.296875 222.125 C 87.089844 223.015625 87.007812 223.964844 87.097656 224.921875 "/><g clip-rule="nonzero" clip-path="url(#d16d9b46d5)"><path style=" stroke:none;fill-rule:nonzero;fill:#f1f2f6;fill-opacity:1;" d="M 250.296875 208.652344 C 250.300781 208.660156 250.308594 208.664062 250.316406 208.671875 C 250.398438 208.773438 250.460938 208.867188 250.578125 208.976562 C 250.933594 209.453125 251.066406 209.941406 251.191406 210.414062 C 251.433594 211.328125 251.351562 212.210938 251.089844 213.046875 C 251.050781 213.191406 250.980469 213.332031 250.921875 213.472656 C 250.917969 213.480469 250.917969 213.488281 250.914062 213.492188 C 250.929688 213.488281 250.945312 213.480469 250.957031 213.472656 C 251.304688 213.335938 251.644531 213.191406 251.988281 213.050781 C 251.988281 213.050781 251.988281 213.046875 251.992188 213.046875 C 253.046875 212.609375 254.101562 212.15625 255.148438 211.695312 C 257.851562 210.507812 260.527344 209.246094 263.167969 207.902344 C 265.90625 206.492188 268.621094 205.015625 271.257812 203.378906 C 273.894531 201.746094 276.480469 199.992188 278.929688 198 C 280.152344 197.003906 281.347656 195.957031 282.476562 194.804688 C 283.605469 193.65625 284.679688 192.417969 285.621094 191.023438 C 286.089844 190.324219 286.523438 189.582031 286.894531 188.789062 C 287.261719 187.996094 287.570312 187.144531 287.765625 186.238281 C 287.957031 185.332031 288.03125 184.367188 287.933594 183.402344 C 287.910156 183.164062 287.871094 182.925781 287.824219 182.6875 L 287.789062 182.507812 L 287.742188 182.3125 L 287.65625 181.984375 C 287.519531 181.511719 287.347656 181.066406 287.136719 180.636719 C 286.71875 179.78125 286.167969 179.023438 285.558594 178.367188 C 284.945312 177.707031 284.277344 177.152344 283.585938 176.660156 C 282.195312 175.691406 280.722656 174.972656 279.230469 174.394531 C 276.25 173.238281 273.195312 172.578125 270.148438 172.105469 C 267.097656 171.636719 264.039062 171.398438 260.984375 171.269531 C 257.929688 171.15625 254.878906 171.164062 251.839844 171.289062 L 251.832031 171.730469 C 254.855469 171.996094 257.867188 172.300781 260.859375 172.71875 C 263.84375 173.121094 266.8125 173.648438 269.71875 174.328125 C 271.167969 174.671875 272.605469 175.058594 274.007812 175.511719 C 275.410156 175.964844 276.78125 176.476562 278.082031 177.089844 C 279.378906 177.699219 280.609375 178.40625 281.65625 179.246094 C 282.699219 180.082031 283.542969 181.050781 283.976562 182.097656 C 284.082031 182.355469 284.167969 182.628906 284.226562 182.886719 L 284.273438 183.109375 L 284.300781 183.296875 C 284.320312 183.433594 284.328125 183.566406 284.339844 183.707031 C 284.363281 184.253906 284.296875 184.820312 284.144531 185.386719 C 283.839844 186.535156 283.195312 187.683594 282.398438 188.769531 C 281.597656 189.859375 280.632812 190.886719 279.59375 191.859375 C 278.554688 192.832031 277.445312 193.753906 276.285156 194.632812 C 273.957031 196.386719 271.472656 197.988281 268.914062 199.480469 C 266.351562 200.96875 263.726562 202.378906 261.050781 203.699219 C 259.710938 204.359375 258.371094 205.019531 257.011719 205.648438 C 256.246094 206.011719 255.472656 206.359375 254.699219 206.710938 C 254.109375 206.976562 253.515625 207.242188 252.921875 207.507812 C 252.117188 207.863281 251.3125 208.21875 250.5 208.566406 C 250.496094 208.570312 250.488281 208.570312 250.480469 208.574219 C 250.417969 208.601562 250.359375 208.628906 250.296875 208.652344 "/></g><path style=" stroke:none;fill-rule:nonzero;fill:#f1f2f6;fill-opacity:1;" d="M 87.097656 224.921875 C 87.183594 225.878906 87.449219 226.824219 87.855469 227.683594 C 88.265625 228.546875 88.808594 229.3125 89.40625 229.984375 C 90.617188 231.328125 92.035156 232.3125 93.480469 233.117188 C 94.933594 233.917969 96.429688 234.539062 97.9375 235.066406 C 99.441406 235.597656 100.96875 236.011719 102.492188 236.375 C 105.546875 237.097656 108.621094 237.566406 111.699219 237.878906 C 113.234375 238.035156 114.773438 238.15625 116.308594 238.230469 C 117.847656 238.316406 119.386719 238.363281 120.921875 238.378906 C 123.316406 238.414062 125.710938 238.371094 128.097656 238.277344 C 129.640625 238.214844 131.1875 238.128906 132.730469 238.027344 C 134.90625 237.882812 137.074219 237.703125 139.242188 237.503906 C 142.867188 237.160156 146.480469 236.757812 150.085938 236.320312 C 151.550781 236.140625 153.011719 235.957031 154.472656 235.769531 C 155.445312 235.648438 156.414062 235.523438 157.382812 235.394531 C 163.410156 234.605469 169.425781 233.746094 175.433594 232.8125 C 179.441406 232.183594 183.484375 231.535156 187.492188 230.851562 C 188.667969 230.648438 189.753906 230.445312 191.046875 230.234375 L 191.046875 230.226562 L 191.105469 229.601562 L 189.875 228.222656 L 189.871094 228.222656 C 189.070312 228.339844 188.265625 228.589844 187.460938 228.777344 C 183.386719 229.734375 179.296875 230.601562 175.183594 231.359375 C 169.230469 232.457031 163.234375 233.351562 157.214844 233.988281 C 156.792969 234.03125 156.371094 234.074219 155.949219 234.113281 C 155.734375 234.136719 155.523438 234.160156 155.308594 234.179688 C 155.210938 234.1875 155.113281 234.195312 155.019531 234.203125 C 154.875 234.21875 154.730469 234.230469 154.585938 234.246094 C 154.441406 234.257812 154.300781 234.273438 154.160156 234.285156 C 154.050781 234.292969 153.945312 234.304688 153.835938 234.3125 C 153.578125 234.335938 153.320312 234.359375 153.066406 234.382812 C 153.0625 234.378906 153.058594 234.382812 153.054688 234.382812 C 152.6875 234.410156 152.316406 234.441406 151.949219 234.472656 C 151.582031 234.5 151.214844 234.5 150.847656 234.527344 C 150.476562 234.550781 150.109375 234.578125 149.738281 234.578125 L 149.730469 234.578125 C 146.191406 234.929688 142.648438 234.980469 139.105469 235.039062 C 136.613281 235.082031 134.121094 235.046875 131.632812 235.046875 L 131.628906 235.046875 C 130.070312 235.046875 128.511719 235.046875 126.957031 234.929688 C 126.957031 234.929688 126.957031 234.929688 126.953125 234.929688 L 126.9375 234.929688 C 124.96875 234.929688 123.007812 234.796875 121.050781 234.683594 C 120.300781 234.640625 119.554688 234.605469 118.808594 234.550781 C 118.0625 234.496094 117.316406 234.449219 116.570312 234.382812 C 115.085938 234.253906 113.597656 234.125 112.121094 233.953125 C 109.164062 233.613281 106.230469 233.183594 103.371094 232.554688 C 101.941406 232.238281 100.535156 231.859375 99.167969 231.417969 C 97.804688 230.976562 96.476562 230.453125 95.257812 229.820312 C 94.039062 229.183594 92.914062 228.433594 92.0625 227.546875 C 91.210938 226.652344 90.660156 225.652344 90.507812 224.542969 C 90.34375 223.441406 90.601562 222.21875 91.125 221.019531 C 91.652344 219.8125 92.441406 218.644531 93.332031 217.535156 C 94.226562 216.425781 95.242188 215.375 96.3125 214.375 C 97.378906 213.367188 98.515625 212.410156 99.683594 211.488281 C 102.019531 209.636719 104.5 207.929688 107.027344 206.292969 C 109.5625 204.660156 112.160156 203.105469 114.789062 201.578125 L 114.59375 201.183594 C 111.769531 202.316406 108.984375 203.566406 106.257812 204.953125 C 103.53125 206.335938 100.863281 207.859375 98.292969 209.578125 C 95.734375 211.308594 93.25 213.222656 91.074219 215.589844 C 89.992188 216.785156 88.988281 218.101562 88.214844 219.636719 C 87.828125 220.40625 87.5 221.234375 87.296875 222.125 C 87.089844 223.015625 87.007812 223.964844 87.097656 224.921875 "/><g clip-rule="nonzero" clip-path="url(#1d1208d394)"><path style=" stroke:none;fill-rule:nonzero;fill:#f1f2f6;fill-opacity:1;" d="M 223.949219 252.617188 C 223.949219 252.625 223.949219 252.628906 223.949219 252.628906 C 223.949219 252.636719 223.949219 252.640625 223.949219 252.644531 L 224 252.628906 C 223.984375 252.625 223.964844 252.621094 223.949219 252.617188 "/></g><path style=" stroke:none;fill-rule:nonzero;fill:#f1f2f6;fill-opacity:1;" d="M 188.304688 221.066406 L 191.105469 224.253906 L 191.867188 225.113281 L 193.726562 227.230469 L 194.3125 227.894531 C 194.480469 228.085938 194.71875 228.8125 194.695312 229.066406 L 194.664062 229.566406 C 194.675781 229.566406 194.695312 229.5625 194.695312 229.5625 L 194.695312 229.570312 L 194.34375 233.210938 L 194.34375 233.214844 L 193.867188 238.121094 C 193.804688 238.78125 194.226562 239.164062 194.808594 238.972656 C 195.394531 238.78125 196.042969 238.109375 196.25 237.480469 L 197.871094 232.550781 L 197.871094 232.546875 L 198.949219 229.234375 L 204.722656 227.585938 L 205.140625 227.464844 L 205.148438 227.464844 L 221.578125 222.78125 L 221.519531 223.402344 L 221.523438 223.414062 L 221.574219 223.421875 L 221.402344 227.125 L 221.402344 227.144531 L 219.691406 249.285156 C 219.65625 249.75 219.796875 250.105469 220.148438 250.105469 L 220.167969 250.105469 C 220.304688 250.105469 220.460938 250.089844 220.625 250.035156 L 223.25 249.175781 C 223.859375 248.976562 224.5 248.320312 224.667969 247.699219 L 226.246094 241.835938 C 226.40625 241.855469 226.550781 241.765625 226.71875 241.710938 L 227.871094 241.335938 L 228.179688 241.234375 C 228.792969 241.035156 229.203125 240.511719 229.003906 239.902344 L 228.859375 239.457031 C 228.796875 239.261719 228.675781 239.078125 228.523438 238.925781 C 228.199219 238.605469 227.726562 238.425781 227.316406 238.5625 L 227.050781 238.648438 L 228.464844 233.550781 C 228.625 233.570312 228.820312 233.640625 228.984375 233.589844 L 229.589844 233.390625 L 230.40625 233.125 C 231.019531 232.925781 231.367188 232.246094 231.167969 231.632812 L 231.023438 231.191406 C 230.894531 230.792969 230.535156 230.433594 230.132812 230.289062 C 229.917969 230.210938 229.6875 230.195312 229.476562 230.265625 L 229.257812 230.332031 L 230.824219 224.574219 L 231.996094 220.277344 L 232.152344 219.707031 L 240.417969 217.453125 L 240.484375 217.4375 C 242.382812 216.890625 245.78125 214.871094 247.175781 213.046875 C 247.652344 212.425781 247.894531 211.824219 247.761719 211.3125 C 247.636719 210.832031 247.191406 210.480469 246.554688 210.226562 C 244.519531 209.414062 240.515625 209.632812 238.574219 210.191406 C 238.539062 210.199219 235.546875 211.289062 231.179688 212.890625 C 231.039062 212.941406 230.894531 212.996094 230.746094 213.046875 C 230.527344 213.128906 230.300781 213.210938 230.074219 213.292969 L 229.566406 212.882812 L 226.769531 210.613281 L 221.4375 206.292969 L 221.65625 206.21875 C 222.269531 206.019531 222.628906 205.378906 222.433594 204.769531 L 222.289062 204.324219 C 222.089844 203.714844 221.464844 203.542969 220.851562 203.738281 L 219.429688 204.203125 C 219.265625 204.253906 219.085938 204.234375 218.96875 204.347656 L 214.765625 200.863281 L 215.03125 200.78125 C 215.636719 200.582031 216.019531 199.96875 215.820312 199.355469 L 215.675781 198.910156 C 215.476562 198.300781 214.769531 197.910156 214.160156 198.109375 L 212.695312 198.585938 C 212.527344 198.640625 212.386719 198.730469 212.269531 198.839844 L 207.539062 195.015625 C 207.042969 194.613281 206.117188 194.394531 205.507812 194.59375 L 202.882812 195.445312 C 202.269531 195.644531 202.128906 196.257812 202.542969 196.75 L 216.320312 213.046875 L 219.09375 216.332031 L 219.746094 217.097656 C 219.421875 217.21875 219.097656 217.335938 218.773438 217.453125 C 209.921875 220.699219 200.773438 224.058594 197.605469 225.21875 L 194.914062 223.28125 L 191.867188 221.085938 L 190.609375 220.179688 C 190.074219 219.792969 189.15625 219.632812 188.574219 219.820312 C 187.988281 220.011719 187.867188 220.574219 188.304688 221.066406 "/><path style=" stroke:none;fill-rule:nonzero;fill:#f1f2f6;fill-opacity:1;" d="M 188.304688 221.066406 L 191.105469 224.253906 L 191.867188 225.113281 L 193.726562 227.230469 L 194.3125 227.894531 C 194.480469 228.085938 194.734375 228.8125 194.714844 229.066406 L 194.695312 229.5625 L 194.695312 229.570312 L 194.34375 233.210938 L 194.34375 233.214844 L 193.867188 238.121094 C 193.804688 238.78125 194.226562 239.164062 194.808594 238.972656 C 195.394531 238.78125 196.042969 238.109375 196.25 237.480469 L 197.871094 232.550781 L 197.871094 232.546875 L 198.949219 229.234375 L 204.722656 227.585938 L 205.140625 227.464844 L 205.148438 227.464844 L 221.578125 222.78125 L 221.519531 223.402344 L 221.523438 223.414062 L 221.574219 223.421875 L 221.402344 227.125 L 221.402344 227.144531 L 219.691406 249.285156 C 219.65625 249.75 219.796875 250.105469 220.148438 250.105469 L 220.167969 250.105469 C 220.304688 250.105469 220.460938 250.089844 220.625 250.035156 L 223.25 249.175781 C 223.859375 248.976562 224.5 248.320312 224.667969 247.699219 L 226.246094 241.835938 C 226.40625 241.855469 226.550781 241.765625 226.71875 241.710938 L 227.871094 241.335938 L 228.179688 241.234375 C 228.792969 241.035156 229.203125 240.511719 229.003906 239.902344 L 228.859375 239.457031 C 228.796875 239.261719 228.675781 239.078125 228.523438 238.925781 C 228.199219 238.605469 227.726562 238.425781 227.316406 238.5625 L 227.050781 238.648438 L 228.464844 233.550781 C 228.625 233.570312 228.820312 233.640625 228.984375 233.589844 L 229.589844 233.390625 L 230.40625 233.125 C 231.019531 232.925781 231.367188 232.246094 231.167969 231.632812 L 231.023438 231.191406 C 230.894531 230.792969 230.535156 230.433594 230.132812 230.289062 C 229.917969 230.210938 229.6875 230.195312 229.476562 230.265625 L 229.257812 230.332031 L 230.824219 224.574219 L 231.996094 220.277344 L 232.152344 219.707031 L 240.417969 217.453125 L 240.484375 217.4375 C 242.382812 216.890625 245.78125 214.871094 247.175781 213.046875 C 247.652344 212.425781 247.894531 211.824219 247.761719 211.3125 C 247.636719 210.832031 247.191406 210.480469 246.554688 210.226562 C 244.519531 209.414062 240.515625 209.632812 238.574219 210.191406 C 238.539062 210.199219 235.546875 211.289062 231.179688 212.890625 C 231.039062 212.941406 230.894531 212.996094 230.746094 213.046875 C 230.527344 213.128906 230.300781 213.210938 230.074219 213.292969 L 229.566406 212.882812 L 226.769531 210.613281 L 221.4375 206.292969 L 221.65625 206.21875 C 222.269531 206.019531 222.628906 205.378906 222.433594 204.769531 L 222.289062 204.324219 C 222.089844 203.714844 221.464844 203.542969 220.851562 203.738281 L 219.429688 204.203125 C 219.265625 204.253906 219.085938 204.234375 218.96875 204.347656 L 214.765625 200.863281 L 215.03125 200.78125 C 215.636719 200.582031 216.019531 199.96875 215.820312 199.355469 L 215.675781 198.910156 C 215.476562 198.300781 214.769531 197.910156 214.160156 198.109375 L 212.695312 198.585938 C 212.527344 198.640625 212.386719 198.730469 212.269531 198.839844 L 207.539062 195.015625 C 207.042969 194.613281 206.117188 194.394531 205.507812 194.59375 L 202.882812 195.445312 C 202.269531 195.644531 202.128906 196.257812 202.542969 196.75 L 216.320312 213.046875 L 219.09375 216.332031 L 219.746094 217.097656 C 219.421875 217.21875 219.097656 217.335938 218.773438 217.453125 C 209.921875 220.699219 200.773438 224.058594 197.605469 225.21875 L 194.914062 223.28125 L 191.867188 221.085938 L 190.609375 220.179688 C 190.074219 219.792969 189.15625 219.632812 188.574219 219.820312 C 187.988281 220.011719 187.867188 220.574219 188.304688 221.066406 "/><g style="fill:#ff00ff;fill-opacity:1;"><g transform="translate(66.699206, 223.625829)"><path style="stroke:none" d="M 1.109375 -28.203125 L 1.109375 -41.6875 L 1.59375 -41.6875 C 1.59375 -41.46875 1.6875 -41.273438 1.875 -41.109375 C 2.070312 -40.953125 2.347656 -40.875 2.703125 -40.875 L 23.34375 -40.875 C 23.71875 -40.875 23.992188 -40.953125 24.171875 -41.109375 C 24.347656 -41.273438 24.4375 -41.46875 24.4375 -41.6875 L 24.9375 -41.6875 L 24.9375 -28.203125 L 24.4375 -28.203125 L 24.4375 -33.765625 C 24.4375 -35.347656 24.164062 -36.609375 23.625 -37.546875 C 23.082031 -38.484375 22.398438 -39.15625 21.578125 -39.5625 C 20.765625 -39.976562 19.945312 -40.1875 19.125 -40.1875 L 14.515625 -40.1875 L 14.515625 -3.109375 C 14.515625 -2.367188 14.632812 -1.804688 14.875 -1.421875 C 15.125 -1.046875 15.410156 -0.796875 15.734375 -0.671875 C 16.066406 -0.546875 16.351562 -0.484375 16.59375 -0.484375 L 18.46875 -0.484375 L 18.46875 0 L 7.5625 0 L 7.5625 -0.484375 L 9.4375 -0.484375 C 9.707031 -0.484375 10 -0.546875 10.3125 -0.671875 C 10.632812 -0.796875 10.914062 -1.046875 11.15625 -1.421875 C 11.40625 -1.804688 11.53125 -2.367188 11.53125 -3.109375 L 11.53125 -40.1875 L 6.90625 -40.1875 C 6.113281 -40.1875 5.300781 -39.976562 4.46875 -39.5625 C 3.644531 -39.15625 2.957031 -38.484375 2.40625 -37.546875 C 1.863281 -36.609375 1.59375 -35.347656 1.59375 -33.765625 L 1.59375 -28.203125 Z M 1.109375 -28.203125 "/></g></g><g style="fill:#ff00ff;fill-opacity:1;"><g transform="translate(99.104901, 223.625829)"><path style="stroke:none" d="M 1.21875 0 L 1.21875 -0.484375 L 3.109375 -0.484375 C 3.378906 -0.484375 3.671875 -0.546875 3.984375 -0.671875 C 4.296875 -0.796875 4.570312 -1.046875 4.8125 -1.421875 C 5.0625 -1.804688 5.1875 -2.367188 5.1875 -3.109375 L 5.1875 -37.765625 C 5.1875 -38.523438 5.0625 -39.085938 4.8125 -39.453125 C 4.570312 -39.828125 4.296875 -40.078125 3.984375 -40.203125 C 3.671875 -40.328125 3.378906 -40.390625 3.109375 -40.390625 L 1.21875 -40.390625 L 1.21875 -40.875 L 12.140625 -40.875 L 12.140625 -40.390625 L 10.265625 -40.390625 C 10.015625 -40.390625 9.722656 -40.328125 9.390625 -40.203125 C 9.066406 -40.078125 8.78125 -39.828125 8.53125 -39.453125 C 8.289062 -39.085938 8.171875 -38.523438 8.171875 -37.765625 L 8.171875 -3.109375 C 8.171875 -2.367188 8.289062 -1.804688 8.53125 -1.421875 C 8.78125 -1.046875 9.066406 -0.796875 9.390625 -0.671875 C 9.722656 -0.546875 10.015625 -0.484375 10.265625 -0.484375 L 12.140625 -0.484375 L 12.140625 0 Z M 1.21875 0 "/></g></g><g style="fill:#ff00ff;fill-opacity:1;"><g transform="translate(118.842983, 223.625829)"><path style="stroke:none" d="M 24 -41.25 C 21.238281 -41.25 18.78125 -40.785156 16.625 -39.859375 C 14.476562 -38.929688 12.648438 -37.65625 11.140625 -36.03125 C 9.628906 -34.40625 8.421875 -32.554688 7.515625 -30.484375 C 6.617188 -28.421875 6.019531 -26.238281 5.71875 -23.9375 C 5.414062 -21.632812 5.425781 -19.332031 5.75 -17.03125 C 6.082031 -14.726562 6.707031 -12.539062 7.625 -10.46875 C 8.539062 -8.394531 9.757812 -6.546875 11.28125 -4.921875 C 12.8125 -3.304688 14.628906 -2.035156 16.734375 -1.109375 C 18.847656 -0.179688 21.253906 0.28125 23.953125 0.28125 C 26.835938 0.28125 29.472656 -0.234375 31.859375 -1.265625 C 34.242188 -2.304688 36.304688 -3.757812 38.046875 -5.625 C 39.796875 -7.488281 41.140625 -9.679688 42.078125 -12.203125 C 43.015625 -14.722656 43.484375 -17.46875 43.484375 -20.4375 L 43.984375 -20.4375 C 43.984375 -17.488281 43.519531 -14.734375 42.59375 -12.171875 C 41.664062 -9.617188 40.316406 -7.367188 38.546875 -5.421875 C 36.773438 -3.472656 34.597656 -1.945312 32.015625 -0.84375 C 29.441406 0.257812 26.507812 0.8125 23.21875 0.8125 C 19.914062 0.8125 16.976562 0.257812 14.40625 -0.84375 C 11.832031 -1.945312 9.660156 -3.472656 7.890625 -5.421875 C 6.117188 -7.367188 4.769531 -9.617188 3.84375 -12.171875 C 2.914062 -14.734375 2.453125 -17.488281 2.453125 -20.4375 C 2.453125 -23.382812 2.914062 -26.132812 3.84375 -28.6875 C 4.769531 -31.25 6.117188 -33.503906 7.890625 -35.453125 C 9.660156 -37.398438 11.832031 -38.925781 14.40625 -40.03125 C 16.976562 -41.132812 19.914062 -41.6875 23.21875 -41.6875 C 25.039062 -41.6875 26.617188 -41.539062 27.953125 -41.25 C 29.296875 -40.96875 30.53125 -40.679688 31.65625 -40.390625 C 32.789062 -40.109375 33.941406 -39.96875 35.109375 -39.96875 C 35.929688 -39.96875 36.597656 -40.148438 37.109375 -40.515625 C 37.628906 -40.890625 38.039062 -41.28125 38.34375 -41.6875 L 38.75 -41.6875 L 26.53125 -7.71875 L 26 -7.71875 L 34.21875 -30.65625 C 34.84375 -32.59375 34.957031 -34.226562 34.5625 -35.5625 C 34.164062 -36.894531 33.4375 -37.984375 32.375 -38.828125 C 31.3125 -39.671875 30.035156 -40.285156 28.546875 -40.671875 C 27.066406 -41.054688 25.550781 -41.25 24 -41.25 Z M 24 -41.25 "/></g></g><g style="fill:#ff00ff;fill-opacity:1;"><g transform="translate(170.413547, 223.625829)"><path style="stroke:none" d="M 1.21875 -0.484375 L 3.109375 -0.484375 C 3.378906 -0.484375 3.671875 -0.546875 3.984375 -0.671875 C 4.296875 -0.796875 4.570312 -1.046875 4.8125 -1.421875 C 5.0625 -1.804688 5.1875 -2.367188 5.1875 -3.109375 L 5.1875 -37.765625 C 5.1875 -38.523438 5.0625 -39.085938 4.8125 -39.453125 C 4.570312 -39.828125 4.296875 -40.078125 3.984375 -40.203125 C 3.671875 -40.328125 3.378906 -40.390625 3.109375 -40.390625 L 1.21875 -40.390625 L 1.21875 -40.875 L 12.140625 -40.875 L 12.140625 -40.390625 L 10.265625 -40.390625 C 10.015625 -40.390625 9.722656 -40.328125 9.390625 -40.203125 C 9.066406 -40.078125 8.78125 -39.828125 8.53125 -39.453125 C 8.289062 -39.085938 8.171875 -38.523438 8.171875 -37.765625 L 8.171875 -21.375 C 8.828125 -22.300781 9.472656 -23.191406 10.109375 -24.046875 C 10.753906 -24.910156 11.40625 -25.789062 12.0625 -26.6875 C 13.175781 -28.21875 14.207031 -29.691406 15.15625 -31.109375 C 16.113281 -32.523438 16.882812 -33.84375 17.46875 -35.0625 C 18.0625 -36.289062 18.359375 -37.367188 18.359375 -38.296875 C 18.359375 -39.222656 17.988281 -39.800781 17.25 -40.03125 C 16.507812 -40.269531 15.691406 -40.390625 14.796875 -40.390625 L 14.796875 -40.875 L 27.421875 -40.875 L 27.421875 -40.390625 C 26.472656 -40.390625 25.539062 -40.25 24.625 -39.96875 C 23.71875 -39.695312 22.800781 -39.203125 21.875 -38.484375 C 20.945312 -37.765625 19.953125 -36.695312 18.890625 -35.28125 C 17.628906 -33.613281 16.390625 -31.921875 15.171875 -30.203125 C 13.960938 -28.484375 12.75 -26.769531 11.53125 -25.0625 C 13.164062 -21.8125 14.867188 -18.59375 16.640625 -15.40625 C 18.410156 -12.21875 20.15625 -9.015625 21.875 -5.796875 C 22.46875 -4.710938 23.023438 -3.773438 23.546875 -2.984375 C 24.066406 -2.191406 24.695312 -1.578125 25.4375 -1.140625 C 26.1875 -0.703125 27.203125 -0.484375 28.484375 -0.484375 L 28.484375 0 L 21.578125 0 L 9.5625 -22.3125 L 8.171875 -20.359375 L 8.171875 -3.109375 C 8.171875 -2.367188 8.289062 -1.804688 8.53125 -1.421875 C 8.78125 -1.046875 9.066406 -0.796875 9.390625 -0.671875 C 9.722656 -0.546875 10.015625 -0.484375 10.265625 -0.484375 L 12.140625 -0.484375 L 12.140625 0 L 1.21875 0 Z M 1.21875 -0.484375 "/></g></g><g style="fill:#ff00ff;fill-opacity:1;"><g transform="translate(206.496938, 223.625829)"><path style="stroke:none" d="M 1.21875 -40.875 L 24.8125 -40.875 C 25.625 -40.875 26.316406 -40.90625 26.890625 -40.96875 C 27.460938 -41.039062 27.898438 -41.28125 28.203125 -41.6875 L 28.609375 -41.6875 L 20.96875 -20.484375 L 20.390625 -20.484375 L 24.078125 -30.703125 C 24.703125 -32.628906 24.929688 -34.21875 24.765625 -35.46875 C 24.609375 -36.726562 24.1875 -37.710938 23.5 -38.421875 C 22.820312 -39.128906 21.976562 -39.632812 20.96875 -39.9375 C 19.957031 -40.238281 18.910156 -40.390625 17.828125 -40.390625 L 8.171875 -40.390625 L 8.171875 -26.328125 L 11.40625 -26.328125 C 12.601562 -26.328125 13.46875 -26.523438 14 -26.921875 C 14.53125 -27.316406 14.863281 -27.847656 15 -28.515625 C 15.132812 -29.179688 15.203125 -29.910156 15.203125 -30.703125 L 15.703125 -30.703125 L 15.703125 -13.40625 L 15.28125 -13.40625 L 15.28125 -19.5 C 15.28125 -21.375 14.832031 -22.90625 13.9375 -24.09375 C 13.039062 -25.28125 11.597656 -25.875 9.609375 -25.875 L 8.171875 -25.875 L 8.171875 -0.53125 L 18.640625 -0.53125 C 19.867188 -0.53125 21 -0.640625 22.03125 -0.859375 C 23.0625 -1.078125 23.945312 -1.519531 24.6875 -2.1875 C 25.425781 -2.851562 26 -3.835938 26.40625 -5.140625 C 26.8125 -6.453125 27.015625 -8.1875 27.015625 -10.34375 L 27.015625 -20.484375 L 27.515625 -20.484375 L 27.515625 0.78125 L 27.015625 0.78125 C 26.691406 0.363281 26.203125 0.117188 25.546875 0.046875 C 24.890625 -0.015625 24.03125 -0.046875 22.96875 -0.046875 L 1.21875 -0.046875 L 1.21875 -0.53125 L 3.109375 -0.53125 C 3.378906 -0.53125 3.671875 -0.59375 3.984375 -0.71875 C 4.296875 -0.84375 4.570312 -1.09375 4.8125 -1.46875 C 5.0625 -1.851562 5.1875 -2.410156 5.1875 -3.140625 L 5.1875 -37.8125 C 5.1875 -38.570312 5.0625 -39.132812 4.8125 -39.5 C 4.570312 -39.875 4.296875 -40.117188 3.984375 -40.234375 C 3.671875 -40.359375 3.378906 -40.421875 3.109375 -40.421875 L 1.21875 -40.421875 Z M 1.21875 -40.875 "/></g></g><g style="fill:#ff00ff;fill-opacity:1;"><g transform="translate(242.702918, 223.625829)"><path style="stroke:none" d="M 1.109375 -28.203125 L 1.109375 -41.6875 L 1.59375 -41.6875 C 1.59375 -41.46875 1.6875 -41.273438 1.875 -41.109375 C 2.070312 -40.953125 2.347656 -40.875 2.703125 -40.875 L 23.34375 -40.875 C 23.71875 -40.875 23.992188 -40.953125 24.171875 -41.109375 C 24.347656 -41.273438 24.4375 -41.46875 24.4375 -41.6875 L 24.9375 -41.6875 L 24.9375 -28.203125 L 24.4375 -28.203125 L 24.4375 -33.765625 C 24.4375 -35.347656 24.164062 -36.609375 23.625 -37.546875 C 23.082031 -38.484375 22.398438 -39.15625 21.578125 -39.5625 C 20.765625 -39.976562 19.945312 -40.1875 19.125 -40.1875 L 14.515625 -40.1875 L 14.515625 -3.109375 C 14.515625 -2.367188 14.632812 -1.804688 14.875 -1.421875 C 15.125 -1.046875 15.410156 -0.796875 15.734375 -0.671875 C 16.066406 -0.546875 16.351562 -0.484375 16.59375 -0.484375 L 18.46875 -0.484375 L 18.46875 0 L 7.5625 0 L 7.5625 -0.484375 L 9.4375 -0.484375 C 9.707031 -0.484375 10 -0.546875 10.3125 -0.671875 C 10.632812 -0.796875 10.914062 -1.046875 11.15625 -1.421875 C 11.40625 -1.804688 11.53125 -2.367188 11.53125 -3.109375 L 11.53125 -40.1875 L 6.90625 -40.1875 C 6.113281 -40.1875 5.300781 -39.976562 4.46875 -39.5625 C 3.644531 -39.15625 2.957031 -38.484375 2.40625 -37.546875 C 1.863281 -36.609375 1.59375 -35.347656 1.59375 -33.765625 L 1.59375 -28.203125 Z M 1.109375 -28.203125 "/></g></g><g style="fill:#ff00ff;fill-opacity:1;"><g transform="translate(275.108601, 223.625829)"><path style="stroke:none" d="M 1.21875 -40.875 L 14.140625 -40.875 L 14.140625 -40.421875 L 12.390625 -40.421875 C 11.109375 -40.421875 10.46875 -39.890625 10.46875 -38.828125 C 10.46875 -38.472656 10.625 -37.878906 10.9375 -37.046875 C 11.25 -36.222656 11.660156 -35.242188 12.171875 -34.109375 C 12.691406 -32.972656 13.257812 -31.769531 13.875 -30.5 C 14.488281 -29.238281 15.101562 -27.988281 15.71875 -26.75 C 16.332031 -25.507812 16.894531 -24.367188 17.40625 -23.328125 C 17.925781 -22.296875 18.335938 -21.441406 18.640625 -20.765625 C 19.078125 -21.660156 19.613281 -22.757812 20.25 -24.0625 C 20.894531 -25.375 21.554688 -26.765625 22.234375 -28.234375 C 22.921875 -29.710938 23.554688 -31.148438 24.140625 -32.546875 C 24.722656 -33.953125 25.195312 -35.191406 25.5625 -36.265625 C 25.9375 -37.347656 26.125 -38.148438 26.125 -38.671875 C 26.125 -39.210938 25.910156 -39.640625 25.484375 -39.953125 C 25.066406 -40.265625 24.539062 -40.421875 23.90625 -40.421875 L 21.09375 -40.421875 L 21.09375 -40.875 L 33.390625 -40.875 L 33.390625 -40.390625 L 31.71875 -40.390625 C 30.90625 -40.390625 30.179688 -40.175781 29.546875 -39.75 C 28.921875 -39.332031 28.390625 -38.820312 27.953125 -38.21875 C 27.515625 -37.613281 27.160156 -37.039062 26.890625 -36.5 C 26.753906 -36.226562 26.460938 -35.628906 26.015625 -34.703125 C 25.566406 -33.773438 25.015625 -32.648438 24.359375 -31.328125 C 23.703125 -30.003906 23.035156 -28.632812 22.359375 -27.21875 C 21.679688 -25.800781 21.023438 -24.457031 20.390625 -23.1875 C 19.765625 -21.925781 19.265625 -20.898438 18.890625 -20.109375 L 18.890625 -3.109375 C 18.890625 -2.367188 19.007812 -1.804688 19.25 -1.421875 C 19.5 -1.046875 19.785156 -0.796875 20.109375 -0.671875 C 20.429688 -0.546875 20.71875 -0.484375 20.96875 -0.484375 L 22.84375 -0.484375 L 22.84375 0 L 11.9375 0 L 11.9375 -0.484375 L 13.8125 -0.484375 C 14.082031 -0.484375 14.375 -0.546875 14.6875 -0.671875 C 15.007812 -0.796875 15.289062 -1.046875 15.53125 -1.421875 C 15.78125 -1.804688 15.90625 -2.367188 15.90625 -3.109375 L 15.90625 -19.953125 C 15.21875 -21.335938 14.617188 -22.546875 14.109375 -23.578125 C 13.609375 -24.617188 13.144531 -25.582031 12.71875 -26.46875 C 12.300781 -27.351562 11.859375 -28.265625 11.390625 -29.203125 C 10.929688 -30.140625 10.410156 -31.1875 9.828125 -32.34375 C 9.242188 -33.507812 8.539062 -34.894531 7.71875 -36.5 C 7.445312 -37.039062 7.09375 -37.613281 6.65625 -38.21875 C 6.226562 -38.820312 5.695312 -39.332031 5.0625 -39.75 C 4.4375 -40.175781 3.71875 -40.390625 2.90625 -40.390625 L 1.21875 -40.390625 Z M 1.21875 -40.875 "/></g></g><g style="fill:#00ffff;fill-opacity:1;"><g transform="translate(65.278161, 224.19996)"><path style="stroke:none" d="M 1.109375 -28.203125 L 1.109375 -41.6875 L 1.59375 -41.6875 C 1.59375 -41.46875 1.6875 -41.273438 1.875 -41.109375 C 2.070312 -40.953125 2.347656 -40.875 2.703125 -40.875 L 23.34375 -40.875 C 23.71875 -40.875 23.992188 -40.953125 24.171875 -41.109375 C 24.347656 -41.273438 24.4375 -41.46875 24.4375 -41.6875 L 24.9375 -41.6875 L 24.9375 -28.203125 L 24.4375 -28.203125 L 24.4375 -33.765625 C 24.4375 -35.347656 24.164062 -36.609375 23.625 -37.546875 C 23.082031 -38.484375 22.398438 -39.15625 21.578125 -39.5625 C 20.765625 -39.976562 19.945312 -40.1875 19.125 -40.1875 L 14.515625 -40.1875 L 14.515625 -3.109375 C 14.515625 -2.367188 14.632812 -1.804688 14.875 -1.421875 C 15.125 -1.046875 15.410156 -0.796875 15.734375 -0.671875 C 16.066406 -0.546875 16.351562 -0.484375 16.59375 -0.484375 L 18.46875 -0.484375 L 18.46875 0 L 7.5625 0 L 7.5625 -0.484375 L 9.4375 -0.484375 C 9.707031 -0.484375 10 -0.546875 10.3125 -0.671875 C 10.632812 -0.796875 10.914062 -1.046875 11.15625 -1.421875 C 11.40625 -1.804688 11.53125 -2.367188 11.53125 -3.109375 L 11.53125 -40.1875 L 6.90625 -40.1875 C 6.113281 -40.1875 5.300781 -39.976562 4.46875 -39.5625 C 3.644531 -39.15625 2.957031 -38.484375 2.40625 -37.546875 C 1.863281 -36.609375 1.59375 -35.347656 1.59375 -33.765625 L 1.59375 -28.203125 Z M 1.109375 -28.203125 "/></g></g><g style="fill:#00ffff;fill-opacity:1;"><g transform="translate(97.683856, 224.19996)"><path style="stroke:none" d="M 1.21875 0 L 1.21875 -0.484375 L 3.109375 -0.484375 C 3.378906 -0.484375 3.671875 -0.546875 3.984375 -0.671875 C 4.296875 -0.796875 4.570312 -1.046875 4.8125 -1.421875 C 5.0625 -1.804688 5.1875 -2.367188 5.1875 -3.109375 L 5.1875 -37.765625 C 5.1875 -38.523438 5.0625 -39.085938 4.8125 -39.453125 C 4.570312 -39.828125 4.296875 -40.078125 3.984375 -40.203125 C 3.671875 -40.328125 3.378906 -40.390625 3.109375 -40.390625 L 1.21875 -40.390625 L 1.21875 -40.875 L 12.140625 -40.875 L 12.140625 -40.390625 L 10.265625 -40.390625 C 10.015625 -40.390625 9.722656 -40.328125 9.390625 -40.203125 C 9.066406 -40.078125 8.78125 -39.828125 8.53125 -39.453125 C 8.289062 -39.085938 8.171875 -38.523438 8.171875 -37.765625 L 8.171875 -3.109375 C 8.171875 -2.367188 8.289062 -1.804688 8.53125 -1.421875 C 8.78125 -1.046875 9.066406 -0.796875 9.390625 -0.671875 C 9.722656 -0.546875 10.015625 -0.484375 10.265625 -0.484375 L 12.140625 -0.484375 L 12.140625 0 Z M 1.21875 0 "/></g></g><g style="fill:#00ffff;fill-opacity:1;"><g transform="translate(117.421938, 224.19996)"><path style="stroke:none" d="M 24 -41.25 C 21.238281 -41.25 18.78125 -40.785156 16.625 -39.859375 C 14.476562 -38.929688 12.648438 -37.65625 11.140625 -36.03125 C 9.628906 -34.40625 8.421875 -32.554688 7.515625 -30.484375 C 6.617188 -28.421875 6.019531 -26.238281 5.71875 -23.9375 C 5.414062 -21.632812 5.425781 -19.332031 5.75 -17.03125 C 6.082031 -14.726562 6.707031 -12.539062 7.625 -10.46875 C 8.539062 -8.394531 9.757812 -6.546875 11.28125 -4.921875 C 12.8125 -3.304688 14.628906 -2.035156 16.734375 -1.109375 C 18.847656 -0.179688 21.253906 0.28125 23.953125 0.28125 C 26.835938 0.28125 29.472656 -0.234375 31.859375 -1.265625 C 34.242188 -2.304688 36.304688 -3.757812 38.046875 -5.625 C 39.796875 -7.488281 41.140625 -9.679688 42.078125 -12.203125 C 43.015625 -14.722656 43.484375 -17.46875 43.484375 -20.4375 L 43.984375 -20.4375 C 43.984375 -17.488281 43.519531 -14.734375 42.59375 -12.171875 C 41.664062 -9.617188 40.316406 -7.367188 38.546875 -5.421875 C 36.773438 -3.472656 34.597656 -1.945312 32.015625 -0.84375 C 29.441406 0.257812 26.507812 0.8125 23.21875 0.8125 C 19.914062 0.8125 16.976562 0.257812 14.40625 -0.84375 C 11.832031 -1.945312 9.660156 -3.472656 7.890625 -5.421875 C 6.117188 -7.367188 4.769531 -9.617188 3.84375 -12.171875 C 2.914062 -14.734375 2.453125 -17.488281 2.453125 -20.4375 C 2.453125 -23.382812 2.914062 -26.132812 3.84375 -28.6875 C 4.769531 -31.25 6.117188 -33.503906 7.890625 -35.453125 C 9.660156 -37.398438 11.832031 -38.925781 14.40625 -40.03125 C 16.976562 -41.132812 19.914062 -41.6875 23.21875 -41.6875 C 25.039062 -41.6875 26.617188 -41.539062 27.953125 -41.25 C 29.296875 -40.96875 30.53125 -40.679688 31.65625 -40.390625 C 32.789062 -40.109375 33.941406 -39.96875 35.109375 -39.96875 C 35.929688 -39.96875 36.597656 -40.148438 37.109375 -40.515625 C 37.628906 -40.890625 38.039062 -41.28125 38.34375 -41.6875 L 38.75 -41.6875 L 26.53125 -7.71875 L 26 -7.71875 L 34.21875 -30.65625 C 34.84375 -32.59375 34.957031 -34.226562 34.5625 -35.5625 C 34.164062 -36.894531 33.4375 -37.984375 32.375 -38.828125 C 31.3125 -39.671875 30.035156 -40.285156 28.546875 -40.671875 C 27.066406 -41.054688 25.550781 -41.25 24 -41.25 Z M 24 -41.25 "/></g></g><g style="fill:#00ffff;fill-opacity:1;"><g transform="translate(168.992502, 224.19996)"><path style="stroke:none" d="M 1.21875 -0.484375 L 3.109375 -0.484375 C 3.378906 -0.484375 3.671875 -0.546875 3.984375 -0.671875 C 4.296875 -0.796875 4.570312 -1.046875 4.8125 -1.421875 C 5.0625 -1.804688 5.1875 -2.367188 5.1875 -3.109375 L 5.1875 -37.765625 C 5.1875 -38.523438 5.0625 -39.085938 4.8125 -39.453125 C 4.570312 -39.828125 4.296875 -40.078125 3.984375 -40.203125 C 3.671875 -40.328125 3.378906 -40.390625 3.109375 -40.390625 L 1.21875 -40.390625 L 1.21875 -40.875 L 12.140625 -40.875 L 12.140625 -40.390625 L 10.265625 -40.390625 C 10.015625 -40.390625 9.722656 -40.328125 9.390625 -40.203125 C 9.066406 -40.078125 8.78125 -39.828125 8.53125 -39.453125 C 8.289062 -39.085938 8.171875 -38.523438 8.171875 -37.765625 L 8.171875 -21.375 C 8.828125 -22.300781 9.472656 -23.191406 10.109375 -24.046875 C 10.753906 -24.910156 11.40625 -25.789062 12.0625 -26.6875 C 13.175781 -28.21875 14.207031 -29.691406 15.15625 -31.109375 C 16.113281 -32.523438 16.882812 -33.84375 17.46875 -35.0625 C 18.0625 -36.289062 18.359375 -37.367188 18.359375 -38.296875 C 18.359375 -39.222656 17.988281 -39.800781 17.25 -40.03125 C 16.507812 -40.269531 15.691406 -40.390625 14.796875 -40.390625 L 14.796875 -40.875 L 27.421875 -40.875 L 27.421875 -40.390625 C 26.472656 -40.390625 25.539062 -40.25 24.625 -39.96875 C 23.71875 -39.695312 22.800781 -39.203125 21.875 -38.484375 C 20.945312 -37.765625 19.953125 -36.695312 18.890625 -35.28125 C 17.628906 -33.613281 16.390625 -31.921875 15.171875 -30.203125 C 13.960938 -28.484375 12.75 -26.769531 11.53125 -25.0625 C 13.164062 -21.8125 14.867188 -18.59375 16.640625 -15.40625 C 18.410156 -12.21875 20.15625 -9.015625 21.875 -5.796875 C 22.46875 -4.710938 23.023438 -3.773438 23.546875 -2.984375 C 24.066406 -2.191406 24.695312 -1.578125 25.4375 -1.140625 C 26.1875 -0.703125 27.203125 -0.484375 28.484375 -0.484375 L 28.484375 0 L 21.578125 0 L 9.5625 -22.3125 L 8.171875 -20.359375 L 8.171875 -3.109375 C 8.171875 -2.367188 8.289062 -1.804688 8.53125 -1.421875 C 8.78125 -1.046875 9.066406 -0.796875 9.390625 -0.671875 C 9.722656 -0.546875 10.015625 -0.484375 10.265625 -0.484375 L 12.140625 -0.484375 L 12.140625 0 L 1.21875 0 Z M 1.21875 -0.484375 "/></g></g><g style="fill:#00ffff;fill-opacity:1;"><g transform="translate(205.075893, 224.19996)"><path style="stroke:none" d="M 1.21875 -40.875 L 24.8125 -40.875 C 25.625 -40.875 26.316406 -40.90625 26.890625 -40.96875 C 27.460938 -41.039062 27.898438 -41.28125 28.203125 -41.6875 L 28.609375 -41.6875 L 20.96875 -20.484375 L 20.390625 -20.484375 L 24.078125 -30.703125 C 24.703125 -32.628906 24.929688 -34.21875 24.765625 -35.46875 C 24.609375 -36.726562 24.1875 -37.710938 23.5 -38.421875 C 22.820312 -39.128906 21.976562 -39.632812 20.96875 -39.9375 C 19.957031 -40.238281 18.910156 -40.390625 17.828125 -40.390625 L 8.171875 -40.390625 L 8.171875 -26.328125 L 11.40625 -26.328125 C 12.601562 -26.328125 13.46875 -26.523438 14 -26.921875 C 14.53125 -27.316406 14.863281 -27.847656 15 -28.515625 C 15.132812 -29.179688 15.203125 -29.910156 15.203125 -30.703125 L 15.703125 -30.703125 L 15.703125 -13.40625 L 15.28125 -13.40625 L 15.28125 -19.5 C 15.28125 -21.375 14.832031 -22.90625 13.9375 -24.09375 C 13.039062 -25.28125 11.597656 -25.875 9.609375 -25.875 L 8.171875 -25.875 L 8.171875 -0.53125 L 18.640625 -0.53125 C 19.867188 -0.53125 21 -0.640625 22.03125 -0.859375 C 23.0625 -1.078125 23.945312 -1.519531 24.6875 -2.1875 C 25.425781 -2.851562 26 -3.835938 26.40625 -5.140625 C 26.8125 -6.453125 27.015625 -8.1875 27.015625 -10.34375 L 27.015625 -20.484375 L 27.515625 -20.484375 L 27.515625 0.78125 L 27.015625 0.78125 C 26.691406 0.363281 26.203125 0.117188 25.546875 0.046875 C 24.890625 -0.015625 24.03125 -0.046875 22.96875 -0.046875 L 1.21875 -0.046875 L 1.21875 -0.53125 L 3.109375 -0.53125 C 3.378906 -0.53125 3.671875 -0.59375 3.984375 -0.71875 C 4.296875 -0.84375 4.570312 -1.09375 4.8125 -1.46875 C 5.0625 -1.851562 5.1875 -2.410156 5.1875 -3.140625 L 5.1875 -37.8125 C 5.1875 -38.570312 5.0625 -39.132812 4.8125 -39.5 C 4.570312 -39.875 4.296875 -40.117188 3.984375 -40.234375 C 3.671875 -40.359375 3.378906 -40.421875 3.109375 -40.421875 L 1.21875 -40.421875 Z M 1.21875 -40.875 "/></g></g><g style="fill:#00ffff;fill-opacity:1;"><g transform="translate(241.281873, 224.19996)"><path style="stroke:none" d="M 1.109375 -28.203125 L 1.109375 -41.6875 L 1.59375 -41.6875 C 1.59375 -41.46875 1.6875 -41.273438 1.875 -41.109375 C 2.070312 -40.953125 2.347656 -40.875 2.703125 -40.875 L 23.34375 -40.875 C 23.71875 -40.875 23.992188 -40.953125 24.171875 -41.109375 C 24.347656 -41.273438 24.4375 -41.46875 24.4375 -41.6875 L 24.9375 -41.6875 L 24.9375 -28.203125 L 24.4375 -28.203125 L 24.4375 -33.765625 C 24.4375 -35.347656 24.164062 -36.609375 23.625 -37.546875 C 23.082031 -38.484375 22.398438 -39.15625 21.578125 -39.5625 C 20.765625 -39.976562 19.945312 -40.1875 19.125 -40.1875 L 14.515625 -40.1875 L 14.515625 -3.109375 C 14.515625 -2.367188 14.632812 -1.804688 14.875 -1.421875 C 15.125 -1.046875 15.410156 -0.796875 15.734375 -0.671875 C 16.066406 -0.546875 16.351562 -0.484375 16.59375 -0.484375 L 18.46875 -0.484375 L 18.46875 0 L 7.5625 0 L 7.5625 -0.484375 L 9.4375 -0.484375 C 9.707031 -0.484375 10 -0.546875 10.3125 -0.671875 C 10.632812 -0.796875 10.914062 -1.046875 11.15625 -1.421875 C 11.40625 -1.804688 11.53125 -2.367188 11.53125 -3.109375 L 11.53125 -40.1875 L 6.90625 -40.1875 C 6.113281 -40.1875 5.300781 -39.976562 4.46875 -39.5625 C 3.644531 -39.15625 2.957031 -38.484375 2.40625 -37.546875 C 1.863281 -36.609375 1.59375 -35.347656 1.59375 -33.765625 L 1.59375 -28.203125 Z M 1.109375 -28.203125 "/></g></g><g style="fill:#00ffff;fill-opacity:1;"><g transform="translate(273.687557, 224.19996)"><path style="stroke:none" d="M 1.21875 -40.875 L 14.140625 -40.875 L 14.140625 -40.421875 L 12.390625 -40.421875 C 11.109375 -40.421875 10.46875 -39.890625 10.46875 -38.828125 C 10.46875 -38.472656 10.625 -37.878906 10.9375 -37.046875 C 11.25 -36.222656 11.660156 -35.242188 12.171875 -34.109375 C 12.691406 -32.972656 13.257812 -31.769531 13.875 -30.5 C 14.488281 -29.238281 15.101562 -27.988281 15.71875 -26.75 C 16.332031 -25.507812 16.894531 -24.367188 17.40625 -23.328125 C 17.925781 -22.296875 18.335938 -21.441406 18.640625 -20.765625 C 19.078125 -21.660156 19.613281 -22.757812 20.25 -24.0625 C 20.894531 -25.375 21.554688 -26.765625 22.234375 -28.234375 C 22.921875 -29.710938 23.554688 -31.148438 24.140625 -32.546875 C 24.722656 -33.953125 25.195312 -35.191406 25.5625 -36.265625 C 25.9375 -37.347656 26.125 -38.148438 26.125 -38.671875 C 26.125 -39.210938 25.910156 -39.640625 25.484375 -39.953125 C 25.066406 -40.265625 24.539062 -40.421875 23.90625 -40.421875 L 21.09375 -40.421875 L 21.09375 -40.875 L 33.390625 -40.875 L 33.390625 -40.390625 L 31.71875 -40.390625 C 30.90625 -40.390625 30.179688 -40.175781 29.546875 -39.75 C 28.921875 -39.332031 28.390625 -38.820312 27.953125 -38.21875 C 27.515625 -37.613281 27.160156 -37.039062 26.890625 -36.5 C 26.753906 -36.226562 26.460938 -35.628906 26.015625 -34.703125 C 25.566406 -33.773438 25.015625 -32.648438 24.359375 -31.328125 C 23.703125 -30.003906 23.035156 -28.632812 22.359375 -27.21875 C 21.679688 -25.800781 21.023438 -24.457031 20.390625 -23.1875 C 19.765625 -21.925781 19.265625 -20.898438 18.890625 -20.109375 L 18.890625 -3.109375 C 18.890625 -2.367188 19.007812 -1.804688 19.25 -1.421875 C 19.5 -1.046875 19.785156 -0.796875 20.109375 -0.671875 C 20.429688 -0.546875 20.71875 -0.484375 20.96875 -0.484375 L 22.84375 -0.484375 L 22.84375 0 L 11.9375 0 L 11.9375 -0.484375 L 13.8125 -0.484375 C 14.082031 -0.484375 14.375 -0.546875 14.6875 -0.671875 C 15.007812 -0.796875 15.289062 -1.046875 15.53125 -1.421875 C 15.78125 -1.804688 15.90625 -2.367188 15.90625 -3.109375 L 15.90625 -19.953125 C 15.21875 -21.335938 14.617188 -22.546875 14.109375 -23.578125 C 13.609375 -24.617188 13.144531 -25.582031 12.71875 -26.46875 C 12.300781 -27.351562 11.859375 -28.265625 11.390625 -29.203125 C 10.929688 -30.140625 10.410156 -31.1875 9.828125 -32.34375 C 9.242188 -33.507812 8.539062 -34.894531 7.71875 -36.5 C 7.445312 -37.039062 7.09375 -37.613281 6.65625 -38.21875 C 6.226562 -38.820312 5.695312 -39.332031 5.0625 -39.75 C 4.4375 -40.175781 3.71875 -40.390625 2.90625 -40.390625 L 1.21875 -40.390625 Z M 1.21875 -40.875 "/></g></g><g style="fill:#3483b0;fill-opacity:1;"><g transform="translate(65.988684, 223.912896)"><path style="stroke:none" d="M 1.109375 -28.203125 L 1.109375 -41.6875 L 1.59375 -41.6875 C 1.59375 -41.46875 1.6875 -41.273438 1.875 -41.109375 C 2.070312 -40.953125 2.347656 -40.875 2.703125 -40.875 L 23.34375 -40.875 C 23.71875 -40.875 23.992188 -40.953125 24.171875 -41.109375 C 24.347656 -41.273438 24.4375 -41.46875 24.4375 -41.6875 L 24.9375 -41.6875 L 24.9375 -28.203125 L 24.4375 -28.203125 L 24.4375 -33.765625 C 24.4375 -35.347656 24.164062 -36.609375 23.625 -37.546875 C 23.082031 -38.484375 22.398438 -39.15625 21.578125 -39.5625 C 20.765625 -39.976562 19.945312 -40.1875 19.125 -40.1875 L 14.515625 -40.1875 L 14.515625 -3.109375 C 14.515625 -2.367188 14.632812 -1.804688 14.875 -1.421875 C 15.125 -1.046875 15.410156 -0.796875 15.734375 -0.671875 C 16.066406 -0.546875 16.351562 -0.484375 16.59375 -0.484375 L 18.46875 -0.484375 L 18.46875 0 L 7.5625 0 L 7.5625 -0.484375 L 9.4375 -0.484375 C 9.707031 -0.484375 10 -0.546875 10.3125 -0.671875 C 10.632812 -0.796875 10.914062 -1.046875 11.15625 -1.421875 C 11.40625 -1.804688 11.53125 -2.367188 11.53125 -3.109375 L 11.53125 -40.1875 L 6.90625 -40.1875 C 6.113281 -40.1875 5.300781 -39.976562 4.46875 -39.5625 C 3.644531 -39.15625 2.957031 -38.484375 2.40625 -37.546875 C 1.863281 -36.609375 1.59375 -35.347656 1.59375 -33.765625 L 1.59375 -28.203125 Z M 1.109375 -28.203125 "/></g></g><g style="fill:#3483b0;fill-opacity:1;"><g transform="translate(98.394379, 223.912896)"><path style="stroke:none" d="M 1.21875 0 L 1.21875 -0.484375 L 3.109375 -0.484375 C 3.378906 -0.484375 3.671875 -0.546875 3.984375 -0.671875 C 4.296875 -0.796875 4.570312 -1.046875 4.8125 -1.421875 C 5.0625 -1.804688 5.1875 -2.367188 5.1875 -3.109375 L 5.1875 -37.765625 C 5.1875 -38.523438 5.0625 -39.085938 4.8125 -39.453125 C 4.570312 -39.828125 4.296875 -40.078125 3.984375 -40.203125 C 3.671875 -40.328125 3.378906 -40.390625 3.109375 -40.390625 L 1.21875 -40.390625 L 1.21875 -40.875 L 12.140625 -40.875 L 12.140625 -40.390625 L 10.265625 -40.390625 C 10.015625 -40.390625 9.722656 -40.328125 9.390625 -40.203125 C 9.066406 -40.078125 8.78125 -39.828125 8.53125 -39.453125 C 8.289062 -39.085938 8.171875 -38.523438 8.171875 -37.765625 L 8.171875 -3.109375 C 8.171875 -2.367188 8.289062 -1.804688 8.53125 -1.421875 C 8.78125 -1.046875 9.066406 -0.796875 9.390625 -0.671875 C 9.722656 -0.546875 10.015625 -0.484375 10.265625 -0.484375 L 12.140625 -0.484375 L 12.140625 0 Z M 1.21875 0 "/></g></g><g style="fill:#3483b0;fill-opacity:1;"><g transform="translate(118.13246, 223.912896)"><path style="stroke:none" d="M 24 -41.25 C 21.238281 -41.25 18.78125 -40.785156 16.625 -39.859375 C 14.476562 -38.929688 12.648438 -37.65625 11.140625 -36.03125 C 9.628906 -34.40625 8.421875 -32.554688 7.515625 -30.484375 C 6.617188 -28.421875 6.019531 -26.238281 5.71875 -23.9375 C 5.414062 -21.632812 5.425781 -19.332031 5.75 -17.03125 C 6.082031 -14.726562 6.707031 -12.539062 7.625 -10.46875 C 8.539062 -8.394531 9.757812 -6.546875 11.28125 -4.921875 C 12.8125 -3.304688 14.628906 -2.035156 16.734375 -1.109375 C 18.847656 -0.179688 21.253906 0.28125 23.953125 0.28125 C 26.835938 0.28125 29.472656 -0.234375 31.859375 -1.265625 C 34.242188 -2.304688 36.304688 -3.757812 38.046875 -5.625 C 39.796875 -7.488281 41.140625 -9.679688 42.078125 -12.203125 C 43.015625 -14.722656 43.484375 -17.46875 43.484375 -20.4375 L 43.984375 -20.4375 C 43.984375 -17.488281 43.519531 -14.734375 42.59375 -12.171875 C 41.664062 -9.617188 40.316406 -7.367188 38.546875 -5.421875 C 36.773438 -3.472656 34.597656 -1.945312 32.015625 -0.84375 C 29.441406 0.257812 26.507812 0.8125 23.21875 0.8125 C 19.914062 0.8125 16.976562 0.257812 14.40625 -0.84375 C 11.832031 -1.945312 9.660156 -3.472656 7.890625 -5.421875 C 6.117188 -7.367188 4.769531 -9.617188 3.84375 -12.171875 C 2.914062 -14.734375 2.453125 -17.488281 2.453125 -20.4375 C 2.453125 -23.382812 2.914062 -26.132812 3.84375 -28.6875 C 4.769531 -31.25 6.117188 -33.503906 7.890625 -35.453125 C 9.660156 -37.398438 11.832031 -38.925781 14.40625 -40.03125 C 16.976562 -41.132812 19.914062 -41.6875 23.21875 -41.6875 C 25.039062 -41.6875 26.617188 -41.539062 27.953125 -41.25 C 29.296875 -40.96875 30.53125 -40.679688 31.65625 -40.390625 C 32.789062 -40.109375 33.941406 -39.96875 35.109375 -39.96875 C 35.929688 -39.96875 36.597656 -40.148438 37.109375 -40.515625 C 37.628906 -40.890625 38.039062 -41.28125 38.34375 -41.6875 L 38.75 -41.6875 L 26.53125 -7.71875 L 26 -7.71875 L 34.21875 -30.65625 C 34.84375 -32.59375 34.957031 -34.226562 34.5625 -35.5625 C 34.164062 -36.894531 33.4375 -37.984375 32.375 -38.828125 C 31.3125 -39.671875 30.035156 -40.285156 28.546875 -40.671875 C 27.066406 -41.054688 25.550781 -41.25 24 -41.25 Z M 24 -41.25 "/></g></g><g style="fill:#3483b0;fill-opacity:1;"><g transform="translate(169.703025, 223.912896)"><path style="stroke:none" d="M 1.21875 -0.484375 L 3.109375 -0.484375 C 3.378906 -0.484375 3.671875 -0.546875 3.984375 -0.671875 C 4.296875 -0.796875 4.570312 -1.046875 4.8125 -1.421875 C 5.0625 -1.804688 5.1875 -2.367188 5.1875 -3.109375 L 5.1875 -37.765625 C 5.1875 -38.523438 5.0625 -39.085938 4.8125 -39.453125 C 4.570312 -39.828125 4.296875 -40.078125 3.984375 -40.203125 C 3.671875 -40.328125 3.378906 -40.390625 3.109375 -40.390625 L 1.21875 -40.390625 L 1.21875 -40.875 L 12.140625 -40.875 L 12.140625 -40.390625 L 10.265625 -40.390625 C 10.015625 -40.390625 9.722656 -40.328125 9.390625 -40.203125 C 9.066406 -40.078125 8.78125 -39.828125 8.53125 -39.453125 C 8.289062 -39.085938 8.171875 -38.523438 8.171875 -37.765625 L 8.171875 -21.375 C 8.828125 -22.300781 9.472656 -23.191406 10.109375 -24.046875 C 10.753906 -24.910156 11.40625 -25.789062 12.0625 -26.6875 C 13.175781 -28.21875 14.207031 -29.691406 15.15625 -31.109375 C 16.113281 -32.523438 16.882812 -33.84375 17.46875 -35.0625 C 18.0625 -36.289062 18.359375 -37.367188 18.359375 -38.296875 C 18.359375 -39.222656 17.988281 -39.800781 17.25 -40.03125 C 16.507812 -40.269531 15.691406 -40.390625 14.796875 -40.390625 L 14.796875 -40.875 L 27.421875 -40.875 L 27.421875 -40.390625 C 26.472656 -40.390625 25.539062 -40.25 24.625 -39.96875 C 23.71875 -39.695312 22.800781 -39.203125 21.875 -38.484375 C 20.945312 -37.765625 19.953125 -36.695312 18.890625 -35.28125 C 17.628906 -33.613281 16.390625 -31.921875 15.171875 -30.203125 C 13.960938 -28.484375 12.75 -26.769531 11.53125 -25.0625 C 13.164062 -21.8125 14.867188 -18.59375 16.640625 -15.40625 C 18.410156 -12.21875 20.15625 -9.015625 21.875 -5.796875 C 22.46875 -4.710938 23.023438 -3.773438 23.546875 -2.984375 C 24.066406 -2.191406 24.695312 -1.578125 25.4375 -1.140625 C 26.1875 -0.703125 27.203125 -0.484375 28.484375 -0.484375 L 28.484375 0 L 21.578125 0 L 9.5625 -22.3125 L 8.171875 -20.359375 L 8.171875 -3.109375 C 8.171875 -2.367188 8.289062 -1.804688 8.53125 -1.421875 C 8.78125 -1.046875 9.066406 -0.796875 9.390625 -0.671875 C 9.722656 -0.546875 10.015625 -0.484375 10.265625 -0.484375 L 12.140625 -0.484375 L 12.140625 0 L 1.21875 0 Z M 1.21875 -0.484375 "/></g></g><g style="fill:#3483b0;fill-opacity:1;"><g transform="translate(205.786416, 223.912896)"><path style="stroke:none" d="M 1.21875 -40.875 L 24.8125 -40.875 C 25.625 -40.875 26.316406 -40.90625 26.890625 -40.96875 C 27.460938 -41.039062 27.898438 -41.28125 28.203125 -41.6875 L 28.609375 -41.6875 L 20.96875 -20.484375 L 20.390625 -20.484375 L 24.078125 -30.703125 C 24.703125 -32.628906 24.929688 -34.21875 24.765625 -35.46875 C 24.609375 -36.726562 24.1875 -37.710938 23.5 -38.421875 C 22.820312 -39.128906 21.976562 -39.632812 20.96875 -39.9375 C 19.957031 -40.238281 18.910156 -40.390625 17.828125 -40.390625 L 8.171875 -40.390625 L 8.171875 -26.328125 L 11.40625 -26.328125 C 12.601562 -26.328125 13.46875 -26.523438 14 -26.921875 C 14.53125 -27.316406 14.863281 -27.847656 15 -28.515625 C 15.132812 -29.179688 15.203125 -29.910156 15.203125 -30.703125 L 15.703125 -30.703125 L 15.703125 -13.40625 L 15.28125 -13.40625 L 15.28125 -19.5 C 15.28125 -21.375 14.832031 -22.90625 13.9375 -24.09375 C 13.039062 -25.28125 11.597656 -25.875 9.609375 -25.875 L 8.171875 -25.875 L 8.171875 -0.53125 L 18.640625 -0.53125 C 19.867188 -0.53125 21 -0.640625 22.03125 -0.859375 C 23.0625 -1.078125 23.945312 -1.519531 24.6875 -2.1875 C 25.425781 -2.851562 26 -3.835938 26.40625 -5.140625 C 26.8125 -6.453125 27.015625 -8.1875 27.015625 -10.34375 L 27.015625 -20.484375 L 27.515625 -20.484375 L 27.515625 0.78125 L 27.015625 0.78125 C 26.691406 0.363281 26.203125 0.117188 25.546875 0.046875 C 24.890625 -0.015625 24.03125 -0.046875 22.96875 -0.046875 L 1.21875 -0.046875 L 1.21875 -0.53125 L 3.109375 -0.53125 C 3.378906 -0.53125 3.671875 -0.59375 3.984375 -0.71875 C 4.296875 -0.84375 4.570312 -1.09375 4.8125 -1.46875 C 5.0625 -1.851562 5.1875 -2.410156 5.1875 -3.140625 L 5.1875 -37.8125 C 5.1875 -38.570312 5.0625 -39.132812 4.8125 -39.5 C 4.570312 -39.875 4.296875 -40.117188 3.984375 -40.234375 C 3.671875 -40.359375 3.378906 -40.421875 3.109375 -40.421875 L 1.21875 -40.421875 Z M 1.21875 -40.875 "/></g></g><g style="fill:#3483b0;fill-opacity:1;"><g transform="translate(241.992395, 223.912896)"><path style="stroke:none" d="M 1.109375 -28.203125 L 1.109375 -41.6875 L 1.59375 -41.6875 C 1.59375 -41.46875 1.6875 -41.273438 1.875 -41.109375 C 2.070312 -40.953125 2.347656 -40.875 2.703125 -40.875 L 23.34375 -40.875 C 23.71875 -40.875 23.992188 -40.953125 24.171875 -41.109375 C 24.347656 -41.273438 24.4375 -41.46875 24.4375 -41.6875 L 24.9375 -41.6875 L 24.9375 -28.203125 L 24.4375 -28.203125 L 24.4375 -33.765625 C 24.4375 -35.347656 24.164062 -36.609375 23.625 -37.546875 C 23.082031 -38.484375 22.398438 -39.15625 21.578125 -39.5625 C 20.765625 -39.976562 19.945312 -40.1875 19.125 -40.1875 L 14.515625 -40.1875 L 14.515625 -3.109375 C 14.515625 -2.367188 14.632812 -1.804688 14.875 -1.421875 C 15.125 -1.046875 15.410156 -0.796875 15.734375 -0.671875 C 16.066406 -0.546875 16.351562 -0.484375 16.59375 -0.484375 L 18.46875 -0.484375 L 18.46875 0 L 7.5625 0 L 7.5625 -0.484375 L 9.4375 -0.484375 C 9.707031 -0.484375 10 -0.546875 10.3125 -0.671875 C 10.632812 -0.796875 10.914062 -1.046875 11.15625 -1.421875 C 11.40625 -1.804688 11.53125 -2.367188 11.53125 -3.109375 L 11.53125 -40.1875 L 6.90625 -40.1875 C 6.113281 -40.1875 5.300781 -39.976562 4.46875 -39.5625 C 3.644531 -39.15625 2.957031 -38.484375 2.40625 -37.546875 C 1.863281 -36.609375 1.59375 -35.347656 1.59375 -33.765625 L 1.59375 -28.203125 Z M 1.109375 -28.203125 "/></g></g><g style="fill:#3483b0;fill-opacity:1;"><g transform="translate(274.398079, 223.912896)"><path style="stroke:none" d="M 1.21875 -40.875 L 14.140625 -40.875 L 14.140625 -40.421875 L 12.390625 -40.421875 C 11.109375 -40.421875 10.46875 -39.890625 10.46875 -38.828125 C 10.46875 -38.472656 10.625 -37.878906 10.9375 -37.046875 C 11.25 -36.222656 11.660156 -35.242188 12.171875 -34.109375 C 12.691406 -32.972656 13.257812 -31.769531 13.875 -30.5 C 14.488281 -29.238281 15.101562 -27.988281 15.71875 -26.75 C 16.332031 -25.507812 16.894531 -24.367188 17.40625 -23.328125 C 17.925781 -22.296875 18.335938 -21.441406 18.640625 -20.765625 C 19.078125 -21.660156 19.613281 -22.757812 20.25 -24.0625 C 20.894531 -25.375 21.554688 -26.765625 22.234375 -28.234375 C 22.921875 -29.710938 23.554688 -31.148438 24.140625 -32.546875 C 24.722656 -33.953125 25.195312 -35.191406 25.5625 -36.265625 C 25.9375 -37.347656 26.125 -38.148438 26.125 -38.671875 C 26.125 -39.210938 25.910156 -39.640625 25.484375 -39.953125 C 25.066406 -40.265625 24.539062 -40.421875 23.90625 -40.421875 L 21.09375 -40.421875 L 21.09375 -40.875 L 33.390625 -40.875 L 33.390625 -40.390625 L 31.71875 -40.390625 C 30.90625 -40.390625 30.179688 -40.175781 29.546875 -39.75 C 28.921875 -39.332031 28.390625 -38.820312 27.953125 -38.21875 C 27.515625 -37.613281 27.160156 -37.039062 26.890625 -36.5 C 26.753906 -36.226562 26.460938 -35.628906 26.015625 -34.703125 C 25.566406 -33.773438 25.015625 -32.648438 24.359375 -31.328125 C 23.703125 -30.003906 23.035156 -28.632812 22.359375 -27.21875 C 21.679688 -25.800781 21.023438 -24.457031 20.390625 -23.1875 C 19.765625 -21.925781 19.265625 -20.898438 18.890625 -20.109375 L 18.890625 -3.109375 C 18.890625 -2.367188 19.007812 -1.804688 19.25 -1.421875 C 19.5 -1.046875 19.785156 -0.796875 20.109375 -0.671875 C 20.429688 -0.546875 20.71875 -0.484375 20.96875 -0.484375 L 22.84375 -0.484375 L 22.84375 0 L 11.9375 0 L 11.9375 -0.484375 L 13.8125 -0.484375 C 14.082031 -0.484375 14.375 -0.546875 14.6875 -0.671875 C 15.007812 -0.796875 15.289062 -1.046875 15.53125 -1.421875 C 15.78125 -1.804688 15.90625 -2.367188 15.90625 -3.109375 L 15.90625 -19.953125 C 15.21875 -21.335938 14.617188 -22.546875 14.109375 -23.578125 C 13.609375 -24.617188 13.144531 -25.582031 12.71875 -26.46875 C 12.300781 -27.351562 11.859375 -28.265625 11.390625 -29.203125 C 10.929688 -30.140625 10.410156 -31.1875 9.828125 -32.34375 C 9.242188 -33.507812 8.539062 -34.894531 7.71875 -36.5 C 7.445312 -37.039062 7.09375 -37.613281 6.65625 -38.21875 C 6.226562 -38.820312 5.695312 -39.332031 5.0625 -39.75 C 4.4375 -40.175781 3.71875 -40.390625 2.90625 -40.390625 L 1.21875 -40.390625 Z M 1.21875 -40.875 "/></g></g></g></svg>